<svg width="640" height="480" viewBox="0 0 640 480" fill="none" xmlns="http://www.w3.org/2000/svg">
  <rect width="640" height="480" rx="32" fill="#FFF5F5"/>
  <circle cx="320" cy="240" r="160" fill="#D91F26" opacity="0.08"/>
  <circle cx="320" cy="240" r="118" fill="#D91F26" opacity="0.12"/>
  <path d="M308 140C279.8 140 257 162.8 257 191C257 219.3 279.8 242 308 242C316.3 242 324.1 240 331.1 236.4C321 249.1 305.5 257.2 288.1 257.2C258 257.2 233.7 232.8 233.7 202.8C233.7 172.7 258 148.3 288.1 148.3C305.5 148.3 321 156.5 331.1 169.1C324.1 149.9 316.3 140 308 140Z" fill="#D91F26"/>
  <path d="M355 160L362.4 182.3H385.8L366.9 195.7L374.2 218L355 204.6L335.9 218L343.2 195.7L324.3 182.3H347.6L355 160Z" fill="#D91F26"/>
  <rect x="171" y="294" width="298" height="78" rx="18" fill="white"/>
  <rect x="171" y="294" width="298" height="78" rx="18" stroke="#D91F26" stroke-opacity="0.16"/>
  <text x="320" y="328" text-anchor="middle" font-family="Arial, Helvetica, sans-serif" font-size="28" font-weight="700" fill="#202124">ADD Bakırköy Şubesi</text>
  <text x="320" y="355" text-anchor="middle" font-family="Arial, Helvetica, sans-serif" font-size="16" fill="#5F6368">Cumhuriyet değerlerini yaşatan kurumsal ve çağdaş bir dijital yüz</text>
</svg>
